<svg width="78" height="28" viewBox="0 0 78 28" fill="none" xmlns="http://www.w3.org/2000/svg">
<path d="M34.5 9.94118C34.5 7.22353 27.1385 5 18 5C8.86154 5 1.5 7.22353 1.5 9.94118M1.5 9.94118C1.5 12.6588 8.86154 14.8824 18 14.8824V11.1765L25.6154 18.5882L18 26V22.2941C8.86154 22.2941 1.5 20.0706 1.5 17.3529V9.94118Z" stroke="#C1B494" stroke-width="1.5" stroke-miterlimit="10" stroke-linecap="round" stroke-linejoin="round"/>
<circle cx="31.5" cy="15.5" r="3" fill="#C1B494"/>
<path d="M46.761 12.3782H48.2273C48.697 12.3782 49.0842 12.2988 49.3889 12.1401C49.6936 11.9751 49.9189 11.7466 50.0649 11.4546C50.2173 11.1562 50.2935 10.8103 50.2935 10.4167C50.2935 10.0613 50.2236 9.74707 50.084 9.47412C49.9507 9.19482 49.7444 8.979 49.4651 8.82666C49.1858 8.66797 48.8335 8.58862 48.4082 8.58862C48.0718 8.58862 47.7607 8.65527 47.4751 8.78857C47.1895 8.92188 46.9609 9.10913 46.7896 9.35034C46.6182 9.59155 46.5325 9.88354 46.5325 10.2263H43.7808C43.7808 9.4646 43.9839 8.80127 44.3901 8.23633C44.8027 7.67139 45.355 7.23022 46.0469 6.91284C46.7388 6.59546 47.5005 6.43677 48.332 6.43677C49.2715 6.43677 50.0935 6.58911 50.7981 6.8938C51.5027 7.19214 52.0518 7.6333 52.4453 8.21729C52.8389 8.80127 53.0356 9.5249 53.0356 10.3882C53.0356 10.8262 52.9341 11.2515 52.731 11.6641C52.5278 12.0703 52.2358 12.4385 51.855 12.7686C51.4805 13.0923 51.0234 13.3525 50.4839 13.5493C49.9443 13.7397 49.3381 13.835 48.6653 13.835H46.761V12.3782ZM46.761 14.4634V13.0447H48.6653C49.4207 13.0447 50.084 13.1304 50.6553 13.3018C51.2266 13.4731 51.7058 13.7207 52.093 14.0444C52.4802 14.3618 52.7722 14.7395 52.969 15.1775C53.1658 15.6091 53.2642 16.0884 53.2642 16.6152C53.2642 17.2627 53.1404 17.8403 52.8928 18.3481C52.6453 18.8496 52.2961 19.2749 51.8455 19.624C51.4011 19.9731 50.8806 20.2397 50.2839 20.4238C49.6873 20.6016 49.0366 20.6904 48.332 20.6904C47.748 20.6904 47.1736 20.6111 46.6086 20.4524C46.05 20.2874 45.5422 20.043 45.0852 19.7192C44.6345 19.3892 44.2727 18.9766 43.9998 18.4814C43.7332 17.98 43.5999 17.3865 43.5999 16.7009H46.3516C46.3516 17.0564 46.4404 17.3738 46.6182 17.6531C46.7959 17.9324 47.0403 18.1514 47.3513 18.3101C47.6687 18.4688 48.021 18.5481 48.4082 18.5481C48.8462 18.5481 49.2207 18.4688 49.5317 18.3101C49.8491 18.145 50.0903 17.9165 50.2554 17.6245C50.4268 17.3262 50.5125 16.9802 50.5125 16.5867C50.5125 16.0789 50.4204 15.6726 50.2363 15.3679C50.0522 15.0569 49.7888 14.8284 49.446 14.6824C49.1033 14.5364 48.697 14.4634 48.2273 14.4634H46.761ZM62.2239 6.4939H62.6238V8.68384H62.4619C61.7383 8.68384 61.094 8.79175 60.5291 9.00757C59.9641 9.22339 59.4849 9.53125 59.0913 9.93115C58.7041 10.3247 58.4058 10.8008 58.1963 11.3594C57.9932 11.918 57.8916 12.5432 57.8916 13.2351V15.5393C57.8916 16.0344 57.9392 16.4724 58.0344 16.8533C58.136 17.2278 58.2788 17.542 58.4629 17.7959C58.6533 18.0435 58.8755 18.2307 59.1294 18.3577C59.3833 18.4783 59.6689 18.5386 59.9863 18.5386C60.2847 18.5386 60.5544 18.4751 60.7957 18.3481C61.0432 18.2212 61.2527 18.0435 61.4241 17.8149C61.6018 17.5801 61.7351 17.3071 61.824 16.9961C61.9192 16.6787 61.9668 16.3328 61.9668 15.9583C61.9668 15.5837 61.9192 15.2378 61.824 14.9204C61.7351 14.603 61.6018 14.3301 61.4241 14.1016C61.2463 13.8667 61.0305 13.6858 60.7766 13.5588C60.5227 13.4319 60.2371 13.3684 59.9197 13.3684C59.488 13.3684 59.1072 13.47 58.7771 13.6731C58.4534 13.8699 58.1995 14.1238 58.0154 14.4348C57.8313 14.7458 57.7329 15.0728 57.7202 15.4155L56.8918 14.8823C56.9109 14.3936 57.0125 13.9302 57.1965 13.4922C57.387 13.0542 57.6472 12.667 57.9773 12.3306C58.3137 11.9878 58.7168 11.7212 59.1865 11.5308C59.6562 11.334 60.1863 11.2356 60.7766 11.2356C61.4241 11.2356 61.9922 11.3594 62.481 11.6069C62.9761 11.8545 63.3887 12.1941 63.7188 12.6257C64.0488 13.0574 64.2964 13.5557 64.4614 14.1206C64.6265 14.6855 64.709 15.2886 64.709 15.9297C64.709 16.6025 64.5979 17.2278 64.3757 17.8054C64.1599 18.3831 63.8457 18.8877 63.4331 19.3193C63.0269 19.751 62.5381 20.0874 61.9668 20.3286C61.3955 20.5698 60.7544 20.6904 60.0435 20.6904C59.3071 20.6904 58.6375 20.5571 58.0344 20.2905C57.4377 20.0176 56.9236 19.6367 56.4919 19.1479C56.0603 18.6592 55.7271 18.0784 55.4922 17.4055C55.2637 16.7327 55.1494 15.9963 55.1494 15.1965V14.1301C55.1494 13.0129 55.3113 11.991 55.635 11.0642C55.9651 10.1311 56.438 9.32495 57.0537 8.64575C57.6694 7.96021 58.4121 7.43018 59.2817 7.05566C60.1514 6.68115 61.1321 6.4939 62.2239 6.4939ZM75.6777 12.3496V14.749C75.6777 15.79 75.5667 16.6882 75.3445 17.4436C75.1223 18.1926 74.8018 18.8083 74.3828 19.2908C73.9702 19.7668 73.4783 20.1191 72.907 20.3477C72.3357 20.5762 71.7009 20.6904 71.0027 20.6904C70.4441 20.6904 69.9236 20.6206 69.4412 20.481C68.9587 20.335 68.5239 20.1096 68.1367 19.8049C67.7559 19.5002 67.4258 19.1162 67.1465 18.6528C66.8735 18.1831 66.6641 17.6245 66.5181 16.9771C66.3721 16.3296 66.2991 15.5869 66.2991 14.749V12.3496C66.2991 11.3086 66.4102 10.4167 66.6323 9.67407C66.8608 8.92505 67.1814 8.3125 67.594 7.83643C68.0129 7.36035 68.5081 7.01123 69.0793 6.78906C69.6506 6.56055 70.2854 6.44629 70.9836 6.44629C71.5422 6.44629 72.0596 6.51929 72.5356 6.66528C73.0181 6.80493 73.4529 7.02393 73.8401 7.32227C74.2273 7.62061 74.5574 8.00464 74.8303 8.47437C75.1033 8.93774 75.3127 9.49316 75.4587 10.1406C75.6047 10.7817 75.6777 11.5181 75.6777 12.3496ZM72.926 15.1108V11.9783C72.926 11.4768 72.8975 11.0388 72.8403 10.6643C72.7896 10.2898 72.7102 9.97241 72.6023 9.71216C72.4944 9.44556 72.3611 9.22974 72.2024 9.0647C72.0437 8.89966 71.8628 8.77905 71.6597 8.70288C71.4565 8.62671 71.2312 8.58862 70.9836 8.58862C70.6726 8.58862 70.3965 8.64893 70.1553 8.76953C69.9204 8.89014 69.7205 9.08374 69.5554 9.35034C69.3904 9.6106 69.2634 9.95972 69.1746 10.3977C69.092 10.8293 69.0508 11.3562 69.0508 11.9783V15.1108C69.0508 15.6123 69.0762 16.0535 69.127 16.4343C69.1841 16.8152 69.2666 17.1421 69.3745 17.415C69.4888 17.6816 69.6221 17.9006 69.7744 18.072C69.9331 18.2371 70.114 18.3577 70.3171 18.4338C70.5266 18.51 70.7551 18.5481 71.0027 18.5481C71.3074 18.5481 71.5771 18.4878 71.812 18.3672C72.0532 18.2402 72.2563 18.0435 72.4214 17.7769C72.5928 17.5039 72.7197 17.1484 72.8022 16.7104C72.8848 16.2725 72.926 15.7393 72.926 15.1108Z" fill="#C1B494"/>
</svg>
