<svg width="79" height="28" viewBox="0 0 79 28" fill="none" xmlns="http://www.w3.org/2000/svg">
<path d="M52.261 12.3782H53.7273C54.197 12.3782 54.5842 12.2988 54.8889 12.1401C55.1936 11.9751 55.4189 11.7466 55.5649 11.4546C55.7173 11.1562 55.7935 10.8103 55.7935 10.4167C55.7935 10.0613 55.7236 9.74707 55.584 9.47412C55.4507 9.19482 55.2444 8.979 54.9651 8.82666C54.6858 8.66797 54.3335 8.58862 53.9082 8.58862C53.5718 8.58862 53.2607 8.65527 52.9751 8.78857C52.6895 8.92188 52.4609 9.10913 52.2896 9.35034C52.1182 9.59155 52.0325 9.88354 52.0325 10.2263H49.2808C49.2808 9.4646 49.4839 8.80127 49.8901 8.23633C50.3027 7.67139 50.855 7.23022 51.5469 6.91284C52.2388 6.59546 53.0005 6.43677 53.832 6.43677C54.7715 6.43677 55.5935 6.58911 56.2981 6.8938C57.0027 7.19214 57.5518 7.6333 57.9453 8.21729C58.3389 8.80127 58.5356 9.5249 58.5356 10.3882C58.5356 10.8262 58.4341 11.2515 58.231 11.6641C58.0278 12.0703 57.7358 12.4385 57.355 12.7686C56.9805 13.0923 56.5234 13.3525 55.9839 13.5493C55.4443 13.7397 54.8381 13.835 54.1653 13.835H52.261V12.3782ZM52.261 14.4634V13.0447H54.1653C54.9207 13.0447 55.584 13.1304 56.1553 13.3018C56.7266 13.4731 57.2058 13.7207 57.593 14.0444C57.9802 14.3618 58.2722 14.7395 58.469 15.1775C58.6658 15.6091 58.7642 16.0884 58.7642 16.6152C58.7642 17.2627 58.6404 17.8403 58.3928 18.3481C58.1453 18.8496 57.7961 19.2749 57.3455 19.624C56.9011 19.9731 56.3806 20.2397 55.7839 20.4238C55.1873 20.6016 54.5366 20.6904 53.832 20.6904C53.248 20.6904 52.6736 20.6111 52.1086 20.4524C51.55 20.2874 51.0422 20.043 50.5852 19.7192C50.1345 19.3892 49.7727 18.9766 49.4998 18.4814C49.2332 17.98 49.0999 17.3865 49.0999 16.7009H51.8516C51.8516 17.0564 51.9404 17.3738 52.1182 17.6531C52.2959 17.9324 52.5403 18.1514 52.8513 18.3101C53.1687 18.4688 53.521 18.5481 53.9082 18.5481C54.3462 18.5481 54.7207 18.4688 55.0317 18.3101C55.3491 18.145 55.5903 17.9165 55.7554 17.6245C55.9268 17.3262 56.0125 16.9802 56.0125 16.5867C56.0125 16.0789 55.9204 15.6726 55.7363 15.3679C55.5522 15.0569 55.2888 14.8284 54.946 14.6824C54.6033 14.5364 54.197 14.4634 53.7273 14.4634H52.261ZM65.1912 20.5H62.1729L62.1919 18.272H65.1912C65.9402 18.272 66.5718 18.1038 67.0859 17.7673C67.6001 17.4246 67.9873 16.9263 68.2476 16.2725C68.5142 15.6187 68.6475 14.8284 68.6475 13.9016V13.2256C68.6475 12.5146 68.5713 11.8894 68.4189 11.3499C68.2729 10.8103 68.054 10.3564 67.762 9.98828C67.47 9.62012 67.1113 9.34399 66.686 9.15991C66.2607 8.96948 65.772 8.87427 65.2197 8.87427H62.1157V6.63672H65.2197C66.1465 6.63672 66.9939 6.79541 67.762 7.11279C68.5364 7.42383 69.2061 7.87134 69.771 8.45532C70.3359 9.03931 70.7708 9.73755 71.0754 10.55C71.3865 11.3562 71.542 12.2544 71.542 13.2446V13.9016C71.542 14.8855 71.3865 15.7837 71.0754 16.5962C70.7708 17.4087 70.3359 18.1069 69.771 18.6909C69.2124 19.2686 68.5427 19.7161 67.762 20.0334C66.9875 20.3445 66.1306 20.5 65.1912 20.5ZM63.7915 6.63672V20.5H60.9351V6.63672H63.7915Z" fill="#C1B494"/>
<path d="M6.51638 14.1222C6.51638 12.119 6.53124 10.116 6.5062 8.11282C6.48092 7.85952 6.53337 7.60463 6.65618 7.38166C6.77899 7.15869 6.96656 6.97808 7.19415 6.86407C10.7476 4.82301 14.294 2.7693 17.833 0.702645C18.0353 0.567935 18.2734 0.497112 18.5164 0.50009C18.7595 0.503069 18.9961 0.579727 19.195 0.719355C22.7151 2.77599 26.2417 4.81958 29.7752 6.85062C30.0045 6.96029 30.1956 7.13665 30.3233 7.35639C30.4511 7.57614 30.5098 7.82913 30.4916 8.08266C30.4727 12.1392 30.4727 16.1952 30.4916 20.2506C30.5097 20.5039 30.4506 20.7564 30.3225 20.9757C30.1944 21.1949 30.003 21.3703 29.7735 21.479C26.2401 23.5112 22.714 25.5557 19.195 27.6123C18.9839 27.7535 18.7349 27.8275 18.481 27.8242C18.2271 27.8209 17.98 27.7405 17.7727 27.594C14.2726 25.5485 10.7669 23.5161 7.25569 21.4973C7.01516 21.3851 6.81483 21.2023 6.68144 20.9728C6.54806 20.7433 6.48837 20.4785 6.50986 20.2139C6.53657 18.179 6.51638 16.1538 6.51638 14.1222ZM8.97843 7.70363C9.17708 7.84386 9.2623 7.91427 9.35745 7.96936C12.2705 9.64705 15.1804 11.3348 18.1117 12.9774C18.2568 13.0312 18.4114 13.0531 18.5658 13.0422C18.7201 13.0313 18.8703 12.9876 19.0063 12.9138C21.8192 11.3296 24.6155 9.71355 27.415 8.10263C27.5953 7.99913 27.7638 7.87083 27.9758 7.72727C27.891 7.65192 27.802 7.58132 27.7089 7.51656C24.7625 5.80381 21.8193 4.08611 18.8612 2.40174C18.7258 2.35189 18.5809 2.33159 18.437 2.34224C18.293 2.35289 18.1532 2.39444 18.0266 2.46369C16.4307 3.35178 14.8548 4.27988 13.279 5.19635C11.875 6.01433 10.4759 6.83223 8.97354 7.70363H8.97843ZM28.0378 20.6044C27.7389 20.4141 27.5366 20.2807 27.338 20.1622C25.4249 19.0638 23.5113 17.9667 21.5972 16.8716C20.9578 16.506 20.7626 16.0369 21.0514 15.5845C21.3185 15.1538 21.7757 15.1172 22.4017 15.4761C24.0443 16.4176 25.6872 17.3599 27.3298 18.3025C27.8056 18.5746 28.2879 18.8367 28.8321 19.1372V9.21118C28.7116 9.25512 28.5936 9.30542 28.4783 9.36157C25.5586 11.0309 22.6355 12.7 19.7342 14.3977C19.614 14.4954 19.5161 14.618 19.4473 14.7568C19.3785 14.8956 19.3402 15.0474 19.3352 15.2022C19.3085 18.4558 19.3168 21.7129 19.3201 24.9648C19.3201 25.1501 19.3553 25.3355 19.3854 25.6226L28.0378 20.6044ZM8.17228 9.16431V19.1221C8.43437 18.9886 8.63292 18.8968 8.81989 18.7883C10.753 17.681 12.6853 16.5722 14.6161 15.4627C15.2305 15.1104 15.7059 15.1658 15.9513 15.6098C16.1967 16.0538 16.0232 16.5077 15.4223 16.8532C13.5092 17.9517 11.5956 19.0493 9.68146 20.1455C9.46277 20.2707 9.2558 20.414 8.95031 20.6093L17.6308 25.6393C17.6492 25.3055 17.6708 25.0851 17.6708 24.8731C17.6708 21.6863 17.6592 18.4978 17.6842 15.3111C17.7055 15.094 17.6582 14.8756 17.5485 14.6871C17.4388 14.4986 17.2725 14.3495 17.0733 14.2608C14.9165 13.0505 12.7798 11.8068 10.6347 10.5765C9.84847 10.1141 9.04189 9.65677 8.17717 9.16431H8.17228Z" fill="#C1B494"/>
</svg>
