<svg width="103" height="28" viewBox="0 0 103 28" fill="none" xmlns="http://www.w3.org/2000/svg">
<path d="M27.7812 6.40625V5.5625C27.7793 4.89177 27.512 4.24907 27.0377 3.77479C26.5634 3.30051 25.9207 3.0332 25.25 3.03125H8.375C7.70427 3.0332 7.06157 3.30051 6.58729 3.77479C6.11301 4.24907 5.8457 4.89177 5.84375 5.5625V19.0625C5.8457 19.7332 6.11301 20.3759 6.58729 20.8502C7.06157 21.3245 7.70427 21.5918 8.375 21.5938H9.21875" stroke="white" stroke-width="1.5" stroke-linejoin="round"/>
<path d="M28.731 7.25H12.4878C11.1483 7.25 10.0625 8.33582 10.0625 9.67525V22.5435C10.0625 23.8829 11.1483 24.9688 12.4878 24.9688H28.731C30.0704 24.9688 31.1562 23.8829 31.1562 22.5435V9.67525C31.1562 8.33582 30.0704 7.25 28.731 7.25Z" stroke="white" stroke-width="1.5" stroke-linejoin="round"/>
<path d="M24.6651 13.6936C25.5613 13.6936 26.2878 12.9723 26.2878 12.0826C26.2878 11.1928 25.5613 10.4716 24.6651 10.4716C23.769 10.4716 23.0425 11.1928 23.0425 12.0826C23.0425 12.9723 23.769 13.6936 24.6651 13.6936Z" stroke="white" stroke-width="1.5" stroke-miterlimit="10"/>
<path d="M23.0431 20.1262L18.4473 15.5704C18.1535 15.2802 17.7605 15.1122 17.3477 15.1003C16.9348 15.0885 16.5329 15.2337 16.2229 15.5066L10.0625 20.942M18.9867 24.9688L25.2405 18.7603C25.5283 18.4765 25.911 18.3094 26.3148 18.2912C26.7185 18.273 27.1147 18.405 27.4269 18.6617L31.1562 21.7472" stroke="white" stroke-width="1.5" stroke-linecap="round" stroke-linejoin="round"/>
<path d="M53.1365 15.5583H49.604V13.3303H53.1365C53.6824 13.3303 54.1267 13.2415 54.4695 13.0637C54.8123 12.8796 55.063 12.6257 55.2217 12.302C55.3804 11.9783 55.4597 11.6133 55.4597 11.207C55.4597 10.7944 55.3804 10.4104 55.2217 10.0549C55.063 9.69946 54.8123 9.41382 54.4695 9.198C54.1267 8.98218 53.6824 8.87427 53.1365 8.87427H50.5942V20.5H47.7378V6.63672H53.1365C54.2219 6.63672 55.1519 6.8335 55.9263 7.22705C56.707 7.61426 57.3037 8.15063 57.7163 8.83618C58.1289 9.52173 58.3352 10.3057 58.3352 11.188C58.3352 12.083 58.1289 12.8574 57.7163 13.5112C57.3037 14.165 56.707 14.6697 55.9263 15.0251C55.1519 15.3806 54.2219 15.5583 53.1365 15.5583ZM62.8103 5.875V20.5H60.0681V5.875H62.8103ZM62.4199 14.9871H61.6677C61.6741 14.2698 61.7693 13.6096 61.9534 13.0066C62.1375 12.3972 62.4009 11.8704 62.7437 11.426C63.0864 10.9753 63.4958 10.6262 63.9719 10.3787C64.4543 10.1311 64.9875 10.0073 65.5715 10.0073C66.0793 10.0073 66.5396 10.0803 66.9521 10.2263C67.3711 10.366 67.7297 10.5945 68.0281 10.9119C68.3328 11.2229 68.5676 11.6323 68.7327 12.1401C68.8977 12.6479 68.9802 13.2637 68.9802 13.9873V20.5H66.219V13.9683C66.219 13.5112 66.1523 13.1526 66.019 12.8923C65.8921 12.6257 65.7048 12.4385 65.4573 12.3306C65.2161 12.2163 64.9177 12.1592 64.5623 12.1592C64.1687 12.1592 63.8323 12.2322 63.553 12.3782C63.28 12.5242 63.061 12.7273 62.896 12.9875C62.731 13.2415 62.6104 13.5398 62.5342 13.8826C62.458 14.2253 62.4199 14.5935 62.4199 14.9871ZM70.6274 15.4536V15.2537C70.6274 14.4983 70.7354 13.8032 70.9512 13.1685C71.167 12.5273 71.4812 11.9719 71.8938 11.5022C72.3064 11.0325 72.8142 10.6675 73.4172 10.4072C74.0203 10.1406 74.7122 10.0073 75.4929 10.0073C76.2737 10.0073 76.9688 10.1406 77.5781 10.4072C78.1875 10.6675 78.6985 11.0325 79.1111 11.5022C79.53 11.9719 79.8474 12.5273 80.0632 13.1685C80.2791 13.8032 80.387 14.4983 80.387 15.2537V15.4536C80.387 16.2026 80.2791 16.8977 80.0632 17.5388C79.8474 18.1736 79.53 18.729 79.1111 19.2051C78.6985 19.6748 78.1907 20.0398 77.5876 20.3C76.9846 20.5603 76.2927 20.6904 75.512 20.6904C74.7312 20.6904 74.0361 20.5603 73.4268 20.3C72.8237 20.0398 72.3127 19.6748 71.8938 19.2051C71.4812 18.729 71.167 18.1736 70.9512 17.5388C70.7354 16.8977 70.6274 16.2026 70.6274 15.4536ZM73.3696 15.2537V15.4536C73.3696 15.8853 73.4077 16.2883 73.4839 16.6628C73.5601 17.0374 73.6807 17.3674 73.8457 17.6531C74.0171 17.9324 74.2393 18.1514 74.5122 18.3101C74.7852 18.4688 75.1184 18.5481 75.512 18.5481C75.8928 18.5481 76.2197 18.4688 76.4927 18.3101C76.7656 18.1514 76.9846 17.9324 77.1497 17.6531C77.3147 17.3674 77.4353 17.0374 77.5115 16.6628C77.594 16.2883 77.6353 15.8853 77.6353 15.4536V15.2537C77.6353 14.8347 77.594 14.4412 77.5115 14.073C77.4353 13.6985 77.3115 13.3684 77.1401 13.0828C76.9751 12.7908 76.7561 12.5623 76.4832 12.3972C76.2102 12.2322 75.8801 12.1497 75.4929 12.1497C75.1057 12.1497 74.7756 12.2322 74.5027 12.3972C74.2361 12.5623 74.0171 12.7908 73.8457 13.0828C73.6807 13.3684 73.5601 13.6985 73.4839 14.073C73.4077 14.4412 73.3696 14.8347 73.3696 15.2537ZM87.1187 10.1978V12.1401H81.1201V10.1978H87.1187ZM82.6055 7.65552H85.3477V17.396C85.3477 17.6943 85.3857 17.9229 85.4619 18.0815C85.5444 18.2402 85.665 18.3513 85.8237 18.4148C85.9824 18.4719 86.1824 18.5005 86.4236 18.5005C86.595 18.5005 86.7473 18.4941 86.8806 18.4814C87.0203 18.4624 87.1377 18.4434 87.2329 18.4243L87.2424 20.4429C87.0076 20.519 86.7537 20.5793 86.4807 20.6238C86.2078 20.6682 85.9062 20.6904 85.5762 20.6904C84.9731 20.6904 84.4463 20.592 83.9956 20.3953C83.5513 20.1921 83.2085 19.8684 82.9673 19.4241C82.7261 18.9797 82.6055 18.3958 82.6055 17.6721V7.65552ZM87.9946 15.4536V15.2537C87.9946 14.4983 88.1025 13.8032 88.3184 13.1685C88.5342 12.5273 88.8484 11.9719 89.261 11.5022C89.6736 11.0325 90.1814 10.6675 90.7844 10.4072C91.3875 10.1406 92.0793 10.0073 92.8601 10.0073C93.6409 10.0073 94.3359 10.1406 94.9453 10.4072C95.5547 10.6675 96.0657 11.0325 96.4783 11.5022C96.8972 11.9719 97.2146 12.5273 97.4304 13.1685C97.6462 13.8032 97.7542 14.4983 97.7542 15.2537V15.4536C97.7542 16.2026 97.6462 16.8977 97.4304 17.5388C97.2146 18.1736 96.8972 18.729 96.4783 19.2051C96.0657 19.6748 95.5579 20.0398 94.9548 20.3C94.3518 20.5603 93.6599 20.6904 92.8792 20.6904C92.0984 20.6904 91.4033 20.5603 90.7939 20.3C90.1909 20.0398 89.6799 19.6748 89.261 19.2051C88.8484 18.729 88.5342 18.1736 88.3184 17.5388C88.1025 16.8977 87.9946 16.2026 87.9946 15.4536ZM90.7368 15.2537V15.4536C90.7368 15.8853 90.7749 16.2883 90.8511 16.6628C90.9272 17.0374 91.0479 17.3674 91.2129 17.6531C91.3843 17.9324 91.6064 18.1514 91.8794 18.3101C92.1523 18.4688 92.4856 18.5481 92.8792 18.5481C93.26 18.5481 93.5869 18.4688 93.8599 18.3101C94.1328 18.1514 94.3518 17.9324 94.5168 17.6531C94.6819 17.3674 94.8025 17.0374 94.8787 16.6628C94.9612 16.2883 95.0024 15.8853 95.0024 15.4536V15.2537C95.0024 14.8347 94.9612 14.4412 94.8787 14.073C94.8025 13.6985 94.6787 13.3684 94.5073 13.0828C94.3423 12.7908 94.1233 12.5623 93.8503 12.3972C93.5774 12.2322 93.2473 12.1497 92.8601 12.1497C92.4729 12.1497 92.1428 12.2322 91.8699 12.3972C91.6033 12.5623 91.3843 12.7908 91.2129 13.0828C91.0479 13.3684 90.9272 13.6985 90.8511 14.073C90.7749 14.4412 90.7368 14.8347 90.7368 15.2537Z" fill="white"/>
</svg>
